<?xml version="1.0" encoding="UTF-8"?>
<svg xmlns="http://www.w3.org/2000/svg" xmlns:xlink="http://www.w3.org/1999/xlink" width="30pt" height="30pt" viewBox="0 0 30 30" version="1.1">
<g id="surface1">
<path style=" stroke:none;fill-rule:nonzero;fill:rgb(0%,0%,0%);fill-opacity:1;" d="M 15.003906 0 C 6.714844 0 0 6.714844 0 15.003906 C 0 22.519531 5.542969 28.730469 12.757812 29.816406 L 12.757812 18.976562 L 9.050781 18.976562 L 9.050781 15.035156 L 12.757812 15.035156 L 12.757812 12.410156 C 12.757812 8.066406 14.875 6.15625 18.484375 6.15625 C 20.214844 6.15625 21.132812 6.285156 21.5625 6.347656 L 21.5625 9.785156 L 19.101562 9.785156 C 17.570312 9.785156 17.03125 11.242188 17.03125 12.882812 L 17.03125 15.035156 L 21.523438 15.035156 L 20.914062 18.976562 L 17.03125 18.976562 L 17.03125 29.851562 C 24.355469 28.859375 30 22.597656 30 15.003906 C 30 6.714844 23.285156 0 15.003906 0 Z M 15.003906 0 "/>
</g>
</svg>
