<?xml version="1.0" encoding="UTF-8"?>
<svg xmlns="http://www.w3.org/2000/svg" xmlns:xlink="http://www.w3.org/1999/xlink" width="30pt" height="30pt" viewBox="0 0 30 30" version="1.1">
<g id="surface1">
<path style=" stroke:none;fill-rule:nonzero;fill:rgb(0%,0%,0%);fill-opacity:1;" d="M 15 1.199219 C 7.386719 1.199219 1.199219 7.386719 1.199219 15 C 1.199219 22.613281 7.386719 28.800781 15 28.800781 C 22.613281 28.800781 28.800781 22.613281 28.800781 15 C 28.800781 7.386719 22.613281 1.199219 15 1.199219 Z M 15 2.398438 C 21.964844 2.398438 27.601562 8.035156 27.601562 15 C 27.601562 21.964844 21.964844 27.601562 15 27.601562 C 8.035156 27.601562 2.398438 21.964844 2.398438 15 C 2.398438 8.035156 8.035156 2.398438 15 2.398438 Z M 9.601562 7.199219 C 8.613281 7.199219 7.800781 8.011719 7.800781 9 C 7.800781 9.988281 8.613281 10.800781 9.601562 10.800781 C 10.585938 10.800781 11.398438 9.988281 11.398438 9 C 11.398438 8.011719 10.585938 7.199219 9.601562 7.199219 Z M 9.601562 8.398438 C 9.9375 8.398438 10.199219 8.660156 10.199219 9 C 10.199219 9.339844 9.9375 9.601562 9.601562 9.601562 C 9.261719 9.601562 9 9.339844 9 9 C 9 8.660156 9.261719 8.398438 9.601562 8.398438 Z M 8.398438 11.398438 C 8.070312 11.398438 7.800781 11.667969 7.800781 12 L 7.800781 21 C 7.800781 21.332031 8.070312 21.601562 8.398438 21.601562 L 10.800781 21.601562 C 11.132812 21.601562 11.398438 21.332031 11.398438 21 L 11.398438 12 C 11.398438 11.667969 11.132812 11.398438 10.800781 11.398438 Z M 13.199219 11.398438 C 12.867188 11.398438 12.601562 11.667969 12.601562 12 L 12.601562 21 C 12.601562 21.332031 12.867188 21.601562 13.199219 21.601562 L 15.601562 21.601562 C 15.929688 21.601562 16.199219 21.332031 16.199219 21 L 16.199219 16.5 C 16.199219 15.671875 16.871094 15 17.699219 15 C 18.527344 15 19.199219 15.671875 19.199219 16.5 L 19.199219 21 C 19.199219 21.332031 19.46875 21.601562 19.800781 21.601562 L 22.199219 21.601562 C 22.53125 21.601562 22.800781 21.332031 22.800781 21 L 22.800781 15.898438 C 22.800781 13.421875 20.777344 11.398438 18.300781 11.398438 C 17.527344 11.398438 16.835938 11.648438 16.199219 11.992188 C 16.195312 11.664062 15.929688 11.398438 15.601562 11.398438 Z M 9 12.601562 L 10.199219 12.601562 L 10.199219 20.398438 L 9 20.398438 Z M 13.800781 12.601562 L 15 12.601562 L 15 13.089844 C 15 13.332031 15.144531 13.546875 15.363281 13.640625 C 15.585938 13.734375 15.84375 13.6875 16.015625 13.523438 C 16.609375 12.953125 17.410156 12.601562 18.300781 12.601562 C 20.128906 12.601562 21.601562 14.070312 21.601562 15.898438 L 21.601562 20.398438 L 20.398438 20.398438 L 20.398438 16.5 C 20.398438 15.019531 19.183594 13.800781 17.699219 13.800781 C 16.21875 13.800781 15 15.019531 15 16.5 L 15 20.398438 L 13.800781 20.398438 Z M 13.800781 12.601562 "/>
</g>
</svg>
